<svg width="61" height="60" viewBox="0 0 61 60" fill="none" xmlns="http://www.w3.org/2000/svg">
<g opacity="0.6">
<path d="M35.6411 4.03998C35.879 3.80121 36.246 3.77095 36.5161 3.95013L36.6245 4.03998L44.5952 12.038V12.039C44.8332 12.2779 44.8629 12.647 44.6841 12.9189L44.5952 13.0292L41.9028 15.7304L41.3081 16.3281H44.4155C44.5537 16.3281 44.6878 16.3692 44.8013 16.4453L44.9067 16.5322L54.3774 26.0234V26.0244C54.5044 26.152 54.5825 26.3268 54.5825 26.5204V37.1533C54.5825 37.5409 54.2704 37.8533 53.8872 37.8535C53.5039 37.8535 53.1909 37.541 53.1909 37.1533V27.2206H7.30029V55.4853H53.1909V45.5527C53.1909 45.1649 53.5039 44.8525 53.8872 44.8525C54.2704 44.8527 54.5825 45.1651 54.5825 45.5527V56.1855C54.5824 56.573 54.2703 56.8845 53.8872 56.8847H6.604C6.22082 56.8846 5.90781 56.5731 5.90771 56.1855V26.5204C5.90775 26.3753 5.95161 26.2405 6.02686 26.1288L6.11279 26.0253L15.5649 16.5331C15.6955 16.4019 15.8726 16.3281 16.0571 16.3281H23.0972C23.1244 16.3281 23.1547 16.3307 23.1919 16.3359L23.3647 16.3593L23.4878 16.2363L32.3315 7.36127L35.6411 4.03998ZM16.2427 17.831L8.88037 25.2236L8.28564 25.8212H52.2026L51.6069 25.2236L44.23 17.83L44.1274 17.7275H39.9126L39.8101 17.83L37.1724 20.4775L36.5776 21.0742H40.8989C41.2821 21.0742 41.5952 21.387 41.5952 21.7744C41.595 22.1619 41.2821 22.4735 40.8989 22.4736H19.5913C19.2083 22.4733 18.8962 22.1618 18.896 21.7744C18.896 21.3871 19.2083 21.0744 19.5913 21.0742H23.7329L23.1372 20.4775L21.6929 19.0283C21.4787 18.8133 21.4335 18.4914 21.5591 18.2294L21.7993 17.7275H16.3452L16.2427 17.831ZM35.8853 5.7724L33.3149 8.3515L23.4165 18.2861L23.1704 18.5331L23.4165 18.7802L25.6011 20.9716L25.7036 21.0742H34.6079L34.7104 20.9716L42.8716 12.7812L43.1177 12.5341L42.8716 12.287L36.3813 5.7724L36.1333 5.52338L35.8853 5.7724Z" fill="#2E2E2E" stroke="white" stroke-width="0.7"/>
<path d="M36.4456 21.5719H23.97L20.9354 18.2751L36.7828 2.7648L45.8867 11.8687L36.4456 21.5719Z" fill="#696969"/>
<path d="M53.6832 39.7359C53.1895 39.7359 52.7061 39.9366 52.3575 40.2859C52.0089 40.6346 51.8082 41.118 51.8082 41.6109C51.8082 42.106 52.0089 42.5879 52.3575 42.9388C52.7061 43.2874 53.1895 43.4859 53.6832 43.4859C54.1761 43.4859 54.6595 43.2874 55.0089 42.9388C55.3575 42.5879 55.5582 42.1045 55.5582 41.6109C55.5582 41.118 55.3575 40.636 55.0089 40.2859C54.6595 39.9366 54.1761 39.7359 53.6832 39.7359Z" fill="#6236FF"/>
<path d="M53.6831 39.736C53.1894 39.736 52.7061 39.9367 52.3574 40.286C52.0088 40.6347 51.8081 41.1181 51.8081 41.611C51.8081 42.1061 52.0088 42.588 52.3574 42.9389C52.7061 43.2875 53.1894 43.486 53.6831 43.486C54.176 43.486 54.6594 43.2875 55.0088 42.9389C55.3574 42.588 55.5581 42.1046 55.5581 41.611C55.5581 41.1181 55.3574 40.6361 55.0088 40.286C54.6594 39.9367 54.176 39.736 53.6831 39.736Z" fill="#595959"/>
<path d="M36.2348 21.5405H24.0565L21.0942 18.3792L23.1208 16.361L41.4065 16.361L36.2348 21.5405Z" fill="#595959"/>
<rect x="6.96387" y="55.7243" width="28.8041" height="23.3125" transform="rotate(-90 6.96387 55.7243)" fill="#9F9F9F"/>
<path fill-rule="evenodd" clip-rule="evenodd" d="M33.7102 32.0954C33.4556 31.7414 32.9273 31.5577 32.5304 31.6851L31.0897 32.1482C30.6924 32.276 30.049 32.276 29.6518 32.1482L28.211 31.6851C27.8141 31.5577 27.2858 31.7414 27.0312 32.0954L26.1449 33.3276C25.8903 33.6815 25.3652 34.0822 24.9722 34.2226L23.5466 34.732C23.1533 34.8724 22.8291 35.35 22.8224 35.7989L22.7998 37.3169C22.7931 37.7658 22.5897 38.4233 22.3457 38.7857L21.4975 40.0447C21.2535 40.407 21.2535 40.9948 21.4975 41.3572L22.3457 42.6166C22.5897 42.979 22.7931 43.6364 22.7998 44.0853L22.8224 45.6034C22.8291 46.0523 23.1533 46.5298 23.5466 46.6703L24.9722 47.1792C25.3652 47.3197 25.8903 47.7207 26.1449 48.0747L27.0312 49.3069C27.2858 49.6609 27.8141 49.8442 28.211 49.7167L29.6518 49.2541C30.049 49.1267 30.6924 49.1267 31.0897 49.2541L32.5304 49.7167C32.9273 49.8442 33.4556 49.6609 33.7102 49.3069L34.5966 48.0747C34.8512 47.7207 35.3762 47.3197 35.7696 47.1792L37.1948 46.6703C37.5882 46.5298 37.9124 46.0523 37.9191 45.6034L37.9417 44.0853C37.9484 43.6364 38.1518 42.979 38.3958 42.6166L39.244 41.3572C39.488 40.9948 39.488 40.407 39.244 40.0447L38.3958 38.7857C38.1518 38.4233 37.9484 37.7658 37.9417 37.3169L37.9191 35.7989C37.9124 35.35 37.5882 34.8724 37.1948 34.732L35.7696 34.2226C35.3762 34.0822 34.8512 33.6815 34.5966 33.3276L33.7102 32.0954Z" fill="#2C2C2C"/>
<path fill-rule="evenodd" clip-rule="evenodd" d="M37.0893 40.7599C37.0893 44.4379 34.1077 47.4196 30.4297 47.4196C26.7517 47.4196 23.77 44.4379 23.77 40.7599C23.77 37.0819 26.7517 34.1003 30.4297 34.1003C34.1077 34.1003 37.0893 37.0819 37.0893 40.7599Z" fill="white" stroke="#1F2835" stroke-width="0.325323" stroke-linecap="round" stroke-linejoin="round"/>
<path d="M32.7645 19.8542L28.2432 15.3273L30.8594 12.7143C31.129 12.445 31.417 12.263 31.7234 12.1681C32.0298 12.0732 32.3494 12.0866 32.6821 12.2083C33.0148 12.3194 33.3606 12.5547 33.7196 12.9141L34.8677 14.0637L34.0194 14.9109L32.8158 13.7059C32.61 13.4997 32.4172 13.3861 32.2377 13.3648C32.0581 13.333 31.8784 13.4069 31.6987 13.5863L30.2479 15.0354L33.9141 18.7061L32.7645 19.8542ZM34.4532 18.1676L31.5709 15.2818L32.4192 14.4346L34.3592 16.3769C34.8296 15.9071 35.1547 15.4768 35.3345 15.0861C35.5144 14.6953 35.578 14.3309 35.5254 13.9928C35.4675 13.6494 35.3277 13.3192 35.1061 13.0021C34.8844 12.6851 34.6126 12.3653 34.2906 12.0429L32.8969 10.6793L34.0465 9.53112L35.4322 10.9027C36.2135 11.6744 36.7016 12.4326 36.8966 13.1775C37.0863 13.9171 36.9802 14.6936 36.5782 15.5068C36.1763 16.3094 35.4679 17.1963 34.4532 18.1676Z" fill="white"/>
</g>
</svg>
