<svg width="24" height="24" viewBox="0 0 24 24" fill="none" xmlns="http://www.w3.org/2000/svg">
<g clip-path="url(#clip0_81_686)">
<path d="M13.7725 2.59735C13.8858 2.48363 14.0607 2.46912 14.1895 2.55438L14.2412 2.59735L17.1104 5.47723C17.2236 5.59085 17.2382 5.76597 17.1533 5.8952L17.1104 5.94794L16.1416 6.92059L16.0645 6.99677H16.9883C17.0543 6.99677 17.1187 7.01703 17.1729 7.05341L17.2227 7.09442L20.6328 10.5114C20.6929 10.5719 20.7295 10.6556 20.7295 10.7477V14.5749C20.7295 14.7589 20.5814 14.9079 20.3984 14.9079C20.2154 14.9079 20.0664 14.7589 20.0664 14.5749V11.0807H3.70801V21.0934H20.0664V17.5993C20.0664 17.4153 20.2154 17.2663 20.3984 17.2663C20.5814 17.2663 20.7295 17.4153 20.7295 17.5993V21.4265C20.7295 21.6105 20.5814 21.7594 20.3984 21.7595H3.37695C3.19395 21.7595 3.04492 21.6105 3.04492 21.4265V10.7477C3.04492 10.6557 3.08254 10.5726 3.14258 10.5124L3.15527 10.4987V10.4977L6.54492 7.09442C6.60701 7.032 6.69141 6.99687 6.7793 6.99677H9.31445C9.32909 6.99679 9.34384 6.9985 9.35938 7.00067L9.38184 7.0036L9.39746 6.98798L12.5811 3.79266L13.7725 2.59735ZM6.90332 7.67645L4.25293 10.3376L4.17676 10.4147H19.5967L19.5205 10.3376L16.8643 7.67645L16.8516 7.66278H15.4014L15.3887 7.67645L14.4385 8.6286L14.3623 8.70575H15.7227C15.9056 8.70575 16.0547 8.85485 16.0547 9.03876C16.0547 9.22278 15.9056 9.37177 15.7227 9.37177H8.05176C7.86894 9.37157 7.72073 9.22265 7.7207 9.03876C7.7207 8.85497 7.86893 8.70595 8.05176 8.70575H9.34766L9.27148 8.6286L8.75098 8.10712C8.64892 8.0045 8.62797 7.85128 8.6875 7.72723L8.71777 7.66278H6.91699L6.90332 7.67645ZM13.9756 3.33563L13.0498 4.26434L9.48633 7.84052L9.45508 7.87177L9.48633 7.90399L10.2725 8.69208L10.2861 8.70575H13.4238L13.4375 8.69208L16.375 5.74384L16.4072 5.71259L16.375 5.68036L14.0391 3.33563L14.0068 3.30341L13.9756 3.33563Z" fill="#202C60" stroke="white" stroke-width="0.09"/>
<path d="M14.1195 8.96586H9.62827L8.53581 7.77901L14.2409 2.19531L17.5183 5.4727L14.1195 8.96586Z" fill="white" stroke="#202C60" stroke-width="0.5"/>
<path d="M20.325 15.5049C20.1473 15.5049 19.9733 15.5772 19.8478 15.703C19.7223 15.8285 19.65 16.0025 19.65 16.1799C19.65 16.3582 19.7223 16.5317 19.8478 16.658C19.9733 16.7835 20.1473 16.8549 20.325 16.8549C20.5025 16.8549 20.6765 16.7835 20.8023 16.658C20.9278 16.5317 21 16.3577 21 16.1799C21 16.0025 20.9278 15.829 20.8023 15.703C20.6765 15.5772 20.5025 15.5049 20.325 15.5049Z" fill="#6236FF"/>
<path d="M20.325 15.5049C20.1473 15.5049 19.9733 15.5772 19.8478 15.703C19.7222 15.8285 19.65 16.0025 19.65 16.1799C19.65 16.3582 19.7222 16.5317 19.8478 16.658C19.9733 16.7835 20.1473 16.8549 20.325 16.8549C20.5024 16.8549 20.6765 16.7835 20.8022 16.658C20.9278 16.5317 21 16.3577 21 16.1799C21 16.0025 20.9278 15.829 20.8022 15.703C20.6765 15.5772 20.5024 15.5049 20.325 15.5049Z" fill="#202C60"/>
<rect x="3.50607" y="21.2607" width="10.3695" height="8.3925" transform="rotate(-90 3.50607 21.2607)" fill="#32C4FF"/>
<path fill-rule="evenodd" clip-rule="evenodd" d="M13.1348 12.7543C13.0431 12.6269 12.8529 12.5608 12.71 12.6066L12.1914 12.7733C12.0484 12.8193 11.8167 12.8193 11.6737 12.7733L11.1551 12.6066C11.0122 12.5608 10.822 12.6269 10.7303 12.7543L10.4113 13.1979C10.3196 13.3253 10.1306 13.4696 9.98907 13.5201L9.47587 13.7035C9.33425 13.7541 9.21755 13.926 9.21514 14.0876L9.207 14.6341C9.20459 14.7957 9.13136 15.0324 9.04352 15.1628L8.73817 15.6161C8.65033 15.7465 8.65033 15.9581 8.73817 16.0886L9.04352 16.542C9.13136 16.6724 9.20459 16.9091 9.207 17.0707L9.21514 17.6172C9.21755 17.7788 9.33425 17.9507 9.47587 18.0013L9.98907 18.1845C10.1306 18.2351 10.3196 18.3794 10.4113 18.5069L10.7303 18.9505C10.822 19.0779 11.0122 19.1439 11.1551 19.098L11.6737 18.9315C11.8167 18.8856 12.0484 18.8856 12.1914 18.9315L12.71 19.098C12.8529 19.1439 13.0431 19.0779 13.1348 18.9505L13.4538 18.5069C13.5455 18.3794 13.7345 18.2351 13.8761 18.1845L14.3892 18.0013C14.5308 17.9507 14.6475 17.7788 14.65 17.6172L14.6581 17.0707C14.6605 16.9091 14.7337 16.6724 14.8216 16.542L15.1269 16.0886C15.2148 15.9581 15.2148 15.7465 15.1269 15.6161L14.8216 15.1628C14.7337 15.0324 14.6605 14.7957 14.6581 14.6341L14.65 14.0876C14.6475 13.926 14.5308 13.7541 14.3892 13.7035L13.8761 13.5201C13.7345 13.4696 13.5455 13.3253 13.4538 13.1979L13.1348 12.7543Z" fill="#202C60"/>
<path fill-rule="evenodd" clip-rule="evenodd" d="M14.3512 15.8733C14.3512 17.1974 13.2778 18.2708 11.9538 18.2708C10.6297 18.2708 9.55627 17.1974 9.55627 15.8733C9.55627 14.5493 10.6297 13.4759 11.9538 13.4759C13.2778 13.4759 14.3512 14.5493 14.3512 15.8733Z" fill="white" stroke="#202C60" stroke-width="0.325323" stroke-linecap="round" stroke-linejoin="round"/>
<path d="M12.7943 8.34749L11.1666 6.7178L12.1085 5.77711C12.2055 5.68019 12.3092 5.61465 12.4195 5.58049C12.5298 5.54633 12.6449 5.55116 12.7646 5.59497C12.8844 5.63497 13.0089 5.71967 13.1381 5.84906L13.5515 6.2629L13.2461 6.56791L12.8128 6.13409C12.7387 6.05988 12.6693 6.01896 12.6046 6.01131C12.54 5.99986 12.4753 6.02644 12.4106 6.09106L11.8883 6.61271L13.2081 7.93416L12.7943 8.34749ZM13.4022 7.74032L12.3646 6.70143L12.67 6.39642L13.3684 7.09567C13.5377 6.92654 13.6548 6.77163 13.7195 6.63096C13.7843 6.49028 13.8072 6.35909 13.7882 6.23738C13.7674 6.11376 13.7171 5.99488 13.6373 5.88074C13.5575 5.7666 13.4596 5.65149 13.3437 5.53543L12.842 5.04451L13.2558 4.63118L13.7547 5.12494C14.0359 5.40274 14.2117 5.67573 14.2819 5.94389C14.3501 6.21015 14.3119 6.48965 14.1672 6.78241C14.0225 7.07135 13.7675 7.39066 13.4022 7.74032Z" fill="#202C60"/>
</g>
<defs>
<clipPath id="clip0_81_686">
<rect width="24" height="24" fill="white"/>
</clipPath>
</defs>
</svg>
