<svg width="25" height="24" viewBox="0 0 25 24" fill="none" xmlns="http://www.w3.org/2000/svg">
<g clip-path="url(#clip0_81_603)">
<path d="M17.4389 18.247C17.4426 19.3968 16.5136 20.332 15.3638 20.3358C15.36 20.3358 15.3563 20.3358 15.3526 20.3358L7.12563 20.3188C5.97748 20.3164 5.04797 19.385 5.04797 18.2368V3.71009C5.04797 3.44934 5.15666 3.23828 5.29069 3.23828H15.8099C15.9439 3.23828 16.0526 3.44934 16.0526 3.71009L16.0674 16.3847" stroke="#202C60" stroke-width="0.5" stroke-linecap="round"/>
<path d="M7.81383 18.5977H7.33903C6.69299 18.5977 6.16462 18.0829 6.14783 17.437L6.1385 17.0779C6.12628 16.6077 6.50271 16.2192 6.97309 16.2165L7.29794 16.2147C8.44993 16.2082 9.38692 17.1409 9.38571 18.2929V18.2929C9.38451 19.4387 8.45535 20.3669 7.3096 20.3669H6.56238" stroke="#202C60" stroke-width="0.5" stroke-linecap="round"/>
<path d="M11.7773 9.6179L6.54213 9.6097" stroke="#202C60" stroke-width="0.325323" stroke-linecap="round" stroke-linejoin="round"/>
<path d="M9.54661 11.5513L6.54213 11.5466" stroke="#202C60" stroke-width="0.325323" stroke-linecap="round" stroke-linejoin="round"/>
<path d="M14.9794 13.485L9.7442 13.4768" stroke="#202C60" stroke-width="0.5" stroke-linecap="square" stroke-linejoin="round"/>
<path d="M17.4063 18.4669V18.4669C17.4063 17.1935 16.3747 16.161 15.1013 16.1599L7.73288 16.1536" stroke="#202C60" stroke-width="0.5" stroke-linecap="round" stroke-linejoin="round"/>
<path fill-rule="evenodd" clip-rule="evenodd" d="M17.4063 18.4669C17.4063 17.1935 16.3747 16.161 15.1013 16.1599L7.73288 16.1536" fill="#32C4FF"/>
<path d="M17.4063 18.4669V18.4669C17.4063 17.1935 16.3747 16.161 15.1013 16.1599L7.73288 16.1536" stroke="#202C60" stroke-width="0.5" stroke-linecap="round" stroke-linejoin="round"/>
<rect x="6.47491" y="8.20581" width="3.56908" height="8.17914" rx="0.650647" transform="rotate(-90 6.47491 8.20581)" fill="white" stroke="#202C60" stroke-width="0.5"/>
<path d="M19.5255 9.3228L17.5654 7.65042C16.2587 9.35277 14.6574 11.829 15.3534 12.4158C16.0495 13.0026 18.6444 10.4197 19.5255 9.3228Z" fill="white"/>
<path d="M20.0648 8.76534L17.9968 7.03902C18.788 5.93609 20.4409 3.73842 20.6762 3.64032C21.6293 3.24295 22.9683 4.43766 22.7622 5.36664C22.734 5.49382 20.9579 7.68639 20.0648 8.76534Z" fill="white"/>
<path d="M15.3534 12.4158C16.0495 13.0026 18.6444 10.4197 19.5255 9.3228L17.5654 7.65042C16.2587 9.35277 14.6574 11.829 15.3534 12.4158ZM15.3534 12.4158L14.9038 12.9895M23.1938 6.5877L21.4135 8.76534M17.9968 7.03902L20.0648 8.76534C20.9579 7.68639 22.7339 5.49382 22.7622 5.36664C22.9683 4.43766 21.6293 3.24295 20.6762 3.64032C20.4409 3.73842 18.788 5.93609 17.9968 7.03902Z" stroke="#202C60" stroke-width="0.5"/>
<path d="M15.3534 12.4161L14.9038 12.9897M22.915 6.30923L21.1348 8.48687" stroke="#202C60" stroke-width="0.5"/>
<path d="M18.0685 7.03763L20.0825 8.72799" stroke="#202C60" stroke-width="0.5"/>
</g>
<defs>
<clipPath id="clip0_81_603">
<rect width="24" height="24" fill="white" transform="translate(0.612335)"/>
</clipPath>
</defs>
</svg>
