<svg width="61" height="60" viewBox="0 0 61 60" fill="none" xmlns="http://www.w3.org/2000/svg">
<g opacity="0.6">
<path d="M39.4223 47.8005C39.4327 50.9689 36.8727 53.5458 33.7043 53.5562C33.694 53.5563 33.6838 53.5563 33.6735 53.5563L11.004 53.5093C7.8402 53.5028 5.27895 50.9362 5.27895 47.7724V7.74382C5.27895 7.02533 5.57843 6.44376 5.94776 6.44376H34.9337C35.303 6.44376 35.6025 7.02533 35.6025 7.74382L35.6431 42.6689" stroke="#2E2E2E" stroke-linecap="round"/>
<path d="M12.9009 48.6294H11.5926C9.81237 48.6294 8.35643 47.2108 8.31018 45.4312L8.28447 44.4416C8.2508 43.1459 9.28806 42.0753 10.5842 42.0681L11.5689 42.0625C14.6939 42.045 17.2356 44.5751 17.2323 47.7001V47.7001C17.229 50.877 14.6001 53.4224 11.4247 53.3232L9.52624 53.264" stroke="#2E2E2E" stroke-linecap="round"/>
<path d="M23.8234 24.0244L9.39783 24.0018" stroke="#2E2E2E" stroke-width="0.325323" stroke-linecap="round" stroke-linejoin="round"/>
<path d="M17.6763 29.3509L9.39737 29.338" stroke="#2E2E2E" stroke-width="0.325323" stroke-linecap="round" stroke-linejoin="round"/>
<path d="M32.6435 34.6779L18.218 34.6553" stroke="#2E2E2E" stroke-linecap="square" stroke-linejoin="round"/>
<path d="M39.3314 48.4051V46.9292C39.3314 44.2358 37.1491 42.0517 34.4557 42.0494L12.676 42.0309" stroke="#202C60" stroke-linecap="round" stroke-linejoin="round"/>
<path fill-rule="evenodd" clip-rule="evenodd" d="M39.3313 48.4048V46.929C39.3313 44.2355 37.1491 42.0514 34.4556 42.0492L12.6759 42.0307" fill="#9F9F9F"/>
<path d="M39.3313 48.4048V46.929C39.3313 44.2355 37.1491 42.0514 34.4556 42.0492L12.6759 42.0307" stroke="#2E2E2E" stroke-linecap="round" stroke-linejoin="round"/>
<rect x="9.213" y="20.1316" width="9.83467" height="22.5378" rx="0.650647" transform="rotate(-90 9.213 20.1316)" fill="#2E2E2E"/>
<path d="M45.1712 23.2105L39.7702 18.6022C36.1694 23.2931 31.757 30.1162 33.6749 31.7333C35.5929 33.3503 42.7432 26.2331 45.1712 23.2105Z" fill="#696969"/>
<path d="M46.6572 21.6744L40.9589 16.9175C43.1391 13.8784 47.6936 7.82263 48.342 7.55232C50.9682 6.45736 54.658 9.7494 54.0899 12.3092C54.0122 12.6597 49.1183 18.7013 46.6572 21.6744Z" fill="#696969"/>
<path d="M33.6749 31.7335L32.4361 33.3143M54.5111 14.906L49.6055 20.9065" stroke="#2E2E2E"/>
<path d="M41.1571 16.9124L46.7069 21.5702" stroke="#2E2E2E"/>
<path d="M35.7068 31.6163C34.833 32.0125 34.1157 32.1045 33.6745 31.7325C32.4859 30.7294 33.7309 27.7253 35.7068 24.4689V31.6163Z" fill="#9F9F9F"/>
</g>
</svg>
