<svg width="61" height="60" viewBox="0 0 61 60" fill="none" xmlns="http://www.w3.org/2000/svg">
<g opacity="0.6">
<path fill-rule="evenodd" clip-rule="evenodd" d="M23.6838 47.377L10.7024 32.7629L11.1375 32.3328C12.6371 30.8495 15.049 30.8445 16.5546 32.3209L27.6742 43.2233" fill="white"/>
<path d="M23.6838 47.377L10.7024 32.7629L11.1375 32.3328C12.6371 30.8495 15.049 30.8445 16.5546 32.3209L27.6742 43.2233" stroke="#202C60" stroke-width="0.5"/>
<path d="M23.6838 47.377L10.7024 32.7629L11.1375 32.3328C12.6371 30.8495 15.049 30.8445 16.5546 32.3209L27.6742 43.2233" stroke="#2E2E2E" stroke-width="0.75" stroke-linecap="round" stroke-linejoin="round"/>
<path fill-rule="evenodd" clip-rule="evenodd" d="M38.5647 51.112C35.6126 51.7837 32.5185 51.4131 29.8079 50.0638L4.64187 37.5327L4.90132 36.9786C5.79476 35.0682 8.05589 34.2283 9.97968 35.092L24.1854 41.4706" fill="white"/>
<path d="M38.5647 51.112C35.6126 51.7837 32.5185 51.4131 29.8079 50.0638L4.64187 37.5327L4.90132 36.9786C5.79476 35.0682 8.05589 34.2283 9.97968 35.092L24.1854 41.4706" stroke="#2E2E2E" stroke-width="0.75" stroke-linecap="round" stroke-linejoin="round"/>
<path fill-rule="evenodd" clip-rule="evenodd" d="M49.7514 50.307L34.9757 52.8371C31.9913 53.3485 28.9221 52.8113 26.2884 51.3171L1.83716 37.4436L2.12588 36.9039C3.12151 35.0445 5.4243 34.3282 7.29898 35.2951L21.1391 42.4327" fill="white"/>
<path d="M49.7514 50.307L34.9757 52.8371C31.9913 53.3485 28.9221 52.8113 26.2884 51.3171L1.83716 37.4436L2.12588 36.9039C3.12151 35.0445 5.4243 34.3282 7.29898 35.2951L21.1391 42.4327" stroke="#2E2E2E" stroke-width="0.75" stroke-linecap="round" stroke-linejoin="round"/>
<path fill-rule="evenodd" clip-rule="evenodd" d="M56.517 38.6724L47.7384 34.1859C44.9653 32.7686 41.6912 32.718 38.8755 34.049L21.1382 42.4337L21.8798 43.4859C22.8903 44.9196 24.6817 45.5799 26.3812 45.1453L36.1431 42.6486" fill="white"/>
<path d="M56.517 38.6724L47.7384 34.1859C44.9653 32.7686 41.6912 32.718 38.8755 34.049L21.1382 42.4337L21.8798 43.4859C22.8903 44.9196 24.6817 45.5799 26.3812 45.1453L36.1431 42.6486" stroke="#2E2E2E" stroke-width="0.75" stroke-linecap="round" stroke-linejoin="round"/>
<path fill-rule="evenodd" clip-rule="evenodd" d="M57.4804 53.5228L49.3462 52.4587L51.7025 34.4414L59.8372 35.5055L57.4804 53.5228Z" fill="#595959"/>
<path fill-rule="evenodd" clip-rule="evenodd" d="M56.6561 38.9639C56.916 39.59 56.6194 40.3088 55.9928 40.5688C55.3668 40.8287 54.6485 40.5316 54.3885 39.9055C54.1286 39.2794 54.4252 38.5606 55.0513 38.3007C55.6778 38.0407 56.3962 38.3379 56.6561 38.9639Z" fill="white"/>
<path fill-rule="evenodd" clip-rule="evenodd" d="M41.5832 19.1264C41.5832 25.2836 36.3835 30.2751 29.9696 30.2751C23.5557 30.2751 18.3559 25.2836 18.3559 19.1264C18.3559 12.9692 23.5557 7.9776 29.9696 7.9776C36.3835 7.9776 41.5832 12.9692 41.5832 19.1264Z" fill="#A4A4A4"/>
<path d="M39.0355 26.1491C42.8928 21.3356 42.1537 14.3962 37.3848 10.6498L23.416 28.0811C28.185 31.8276 35.1782 30.9626 39.0355 26.1491Z" fill="#696969"/>
<path d="M25.4243 22.9735V14.7143H30.1975C30.6893 14.7143 31.1184 14.8107 31.4849 15.0036C31.8513 15.1964 32.1309 15.5002 32.3238 15.9148C32.5263 16.3198 32.6275 16.8502 32.6275 17.5059V19.6033H31.0799V17.4047C31.0799 17.0286 31.0075 16.7489 30.8629 16.5657C30.7279 16.3729 30.4965 16.2764 30.1686 16.2764H27.5216V22.9735H25.4243ZM28.5052 22.9735V17.7084H30.0529V21.2522C30.9111 21.2522 31.6006 21.1558 32.1213 20.9629C32.642 20.77 33.0325 20.4952 33.2929 20.1384C33.5533 19.772 33.7268 19.3429 33.8136 18.8511C33.9004 18.3593 33.9438 17.8193 33.9438 17.2311L33.9149 14.7143H36.0122L36.0267 17.2311C36.0363 18.6486 35.7904 19.7865 35.289 20.6447C34.7875 21.4933 33.9824 22.1056 32.8734 22.4817C31.7741 22.8481 30.3181 23.012 28.5052 22.9735Z" fill="white"/>
<path d="M25.4243 22.9735V14.7143H30.1975C30.6893 14.7143 31.1184 14.8107 31.4849 15.0036C31.8513 15.1964 32.1309 15.5002 32.3238 15.9148C32.5263 16.3198 32.6275 16.8502 32.6275 17.5059V19.6033H31.0799V17.4047C31.0799 17.0286 31.0075 16.7489 30.8629 16.5657C30.7279 16.3729 30.4965 16.2764 30.1686 16.2764H27.5216V22.9735H25.4243ZM28.5052 22.9735V17.7084H30.0529V21.2522C30.9111 21.2522 31.6006 21.1558 32.1213 20.9629C32.642 20.77 33.0325 20.4952 33.2929 20.1384C33.5533 19.772 33.7268 19.3429 33.8136 18.8511C33.9004 18.3593 33.9438 17.8193 33.9438 17.2311L33.9149 14.7143H36.0122L36.0267 17.2311C36.0363 18.6486 35.7904 19.7865 35.289 20.6447C34.7875 21.4933 33.9824 22.1056 32.8734 22.4817C31.7741 22.8481 30.3181 23.012 28.5052 22.9735Z" fill="white"/>
<path fill-rule="evenodd" clip-rule="evenodd" d="M43.0954 18.8468C43.0954 25.6784 37.5572 31.2166 30.7257 31.2166C23.8942 31.2166 18.3559 25.6784 18.3559 18.8468C18.3559 12.0152 23.8942 6.47696 30.7257 6.47696C37.5572 6.47696 43.0954 12.0152 43.0954 18.8468Z" stroke="#2E2E2E" stroke-width="0.5" stroke-linecap="round" stroke-linejoin="round"/>
</g>
</svg>
