<svg width="61" height="60" viewBox="0 0 61 60" fill="none" xmlns="http://www.w3.org/2000/svg">
<path fill-rule="evenodd" clip-rule="evenodd" d="M23.6837 47.377L10.7024 32.7629L11.1374 32.3328C12.6371 30.8495 15.049 30.8446 16.5546 32.3209L27.6742 43.2233" fill="white"/>
<path d="M23.6837 47.377L10.7024 32.7629L11.1374 32.3328C12.6371 30.8495 15.049 30.8446 16.5546 32.3209L27.6742 43.2233" stroke="#202C60" stroke-width="0.5"/>
<path d="M23.6837 47.377L10.7024 32.7629L11.1374 32.3328C12.6371 30.8495 15.049 30.8446 16.5546 32.3209L27.6742 43.2233" stroke="#202C60" stroke-width="0.75" stroke-linecap="round" stroke-linejoin="round"/>
<path fill-rule="evenodd" clip-rule="evenodd" d="M38.5647 51.112C35.6125 51.7837 32.5185 51.4131 29.8079 50.0638L4.64182 37.5327L4.90127 36.9786C5.79471 35.0682 8.05583 34.2283 9.97963 35.092L24.1853 41.4706" fill="white"/>
<path d="M38.5647 51.112C35.6125 51.7837 32.5185 51.4131 29.8079 50.0638L4.64182 37.5327L4.90127 36.9786C5.79471 35.0682 8.05583 34.2283 9.97963 35.092L24.1853 41.4706" stroke="#202C60" stroke-width="0.75" stroke-linecap="round" stroke-linejoin="round"/>
<path fill-rule="evenodd" clip-rule="evenodd" d="M49.7513 50.307L34.9756 52.8371C31.9912 53.3485 28.922 52.8113 26.2883 51.3171L1.8371 37.4436L2.12582 36.9039C3.12145 35.0445 5.42425 34.3282 7.29893 35.2951L21.139 42.4327" fill="white"/>
<path d="M49.7513 50.307L34.9756 52.8371C31.9912 53.3485 28.922 52.8113 26.2883 51.3171L1.8371 37.4436L2.12582 36.9039C3.12145 35.0445 5.42425 34.3282 7.29893 35.2951L21.139 42.4327" stroke="#202C60" stroke-width="0.75" stroke-linecap="round" stroke-linejoin="round"/>
<path fill-rule="evenodd" clip-rule="evenodd" d="M56.5169 38.6725L47.7383 34.1859C44.9653 32.7686 41.6911 32.718 38.8754 34.049L21.1381 42.4338L21.8798 43.486C22.8903 44.9197 24.6816 45.5799 26.3812 45.1454L36.143 42.6486" fill="white"/>
<path d="M56.5169 38.6725L47.7383 34.1859C44.9653 32.7686 41.6911 32.718 38.8754 34.049L21.1381 42.4338L21.8798 43.486C22.8903 44.9197 24.6816 45.5799 26.3812 45.1454L36.143 42.6486" stroke="#202C60" stroke-width="0.75" stroke-linecap="round" stroke-linejoin="round"/>
<path fill-rule="evenodd" clip-rule="evenodd" d="M57.4803 53.5228L49.3461 52.4587L51.7025 34.4415L59.8372 35.5056L57.4803 53.5228Z" fill="#6236FF"/>
<path fill-rule="evenodd" clip-rule="evenodd" d="M56.6561 38.9639C56.916 39.59 56.6193 40.3088 55.9928 40.5688C55.3668 40.8287 54.6484 40.5316 54.3885 39.9055C54.1285 39.2794 54.4252 38.5606 55.0512 38.3007C55.6778 38.0407 56.3961 38.3379 56.6561 38.9639Z" fill="white"/>
<path fill-rule="evenodd" clip-rule="evenodd" d="M41.5832 19.1264C41.5832 25.2836 36.3835 30.2751 29.9695 30.2751C23.5556 30.2751 18.3559 25.2836 18.3559 19.1264C18.3559 12.9692 23.5556 7.97763 29.9695 7.97763C36.3835 7.97763 41.5832 12.9692 41.5832 19.1264Z" fill="#46C4FD"/>
<path d="M39.0354 26.1491C42.8928 21.3357 42.1537 14.3963 37.3847 10.6498L23.4159 28.0811C28.1849 31.8276 35.1781 30.9626 39.0354 26.1491Z" fill="#0580FC"/>
<path d="M25.4242 22.9735V14.7143H30.1975C30.6893 14.7143 31.1184 14.8107 31.4848 15.0036C31.8512 15.1964 32.1309 15.5002 32.3237 15.9148C32.5262 16.3198 32.6275 16.8502 32.6275 17.5059V19.6033H31.0798V17.4047C31.0798 17.0286 31.0075 16.7489 30.8628 16.5657C30.7278 16.3729 30.4964 16.2764 30.1685 16.2764H27.5216V22.9735H25.4242ZM28.5051 22.9735V17.7084H30.0528V21.2522C30.911 21.2522 31.6005 21.1558 32.1212 20.9629C32.6419 20.7701 33.0325 20.4952 33.2928 20.1385C33.5532 19.772 33.7268 19.3429 33.8136 18.8511C33.9003 18.3593 33.9437 17.8193 33.9437 17.2311L33.9148 14.7143H36.0121L36.0266 17.2311C36.0362 18.6486 35.7903 19.7865 35.2889 20.6447C34.7875 21.4933 33.9823 22.1056 32.8734 22.4817C31.7741 22.8481 30.318 23.0121 28.5051 22.9735Z" fill="white"/>
<path d="M25.4242 22.9735V14.7143H30.1975C30.6893 14.7143 31.1184 14.8107 31.4848 15.0036C31.8512 15.1964 32.1309 15.5002 32.3237 15.9148C32.5262 16.3198 32.6275 16.8502 32.6275 17.5059V19.6033H31.0798V17.4047C31.0798 17.0286 31.0075 16.7489 30.8628 16.5657C30.7278 16.3729 30.4964 16.2764 30.1685 16.2764H27.5216V22.9735H25.4242ZM28.5051 22.9735V17.7084H30.0528V21.2522C30.911 21.2522 31.6005 21.1558 32.1212 20.9629C32.6419 20.7701 33.0325 20.4952 33.2928 20.1385C33.5532 19.772 33.7268 19.3429 33.8136 18.8511C33.9003 18.3593 33.9437 17.8193 33.9437 17.2311L33.9148 14.7143H36.0121L36.0266 17.2311C36.0362 18.6486 35.7903 19.7865 35.2889 20.6447C34.7875 21.4933 33.9823 22.1056 32.8734 22.4817C31.7741 22.8481 30.318 23.0121 28.5051 22.9735Z" fill="white"/>
<path fill-rule="evenodd" clip-rule="evenodd" d="M43.0953 18.8468C43.0953 25.6784 37.5571 31.2167 30.7256 31.2167C23.8941 31.2167 18.3559 25.6784 18.3559 18.8468C18.3559 12.0153 23.8941 6.47697 30.7256 6.47697C37.5571 6.47697 43.0953 12.0153 43.0953 18.8468Z" stroke="#202C60" stroke-width="0.5" stroke-linecap="round" stroke-linejoin="round"/>
</svg>
