<svg width="25" height="24" viewBox="0 0 25 24" fill="none" xmlns="http://www.w3.org/2000/svg">
<g clip-path="url(#clip0_81_636)">
<path fill-rule="evenodd" clip-rule="evenodd" d="M9.81244 17.9918L5.3361 12.9525L5.48612 12.8042C6.00324 12.2927 6.83494 12.291 7.35411 12.8001L11.1885 16.5595" fill="white"/>
<path d="M9.81244 17.9918L5.3361 12.9525L5.48612 12.8042C6.00324 12.2927 6.83494 12.291 7.35411 12.8001L11.1885 16.5595" stroke="#202C60" stroke-width="0.5"/>
<path d="M9.81244 17.9918L5.3361 12.9525L5.48612 12.8042C6.00324 12.2927 6.83494 12.291 7.35411 12.8001L11.1885 16.5595" stroke="#202C60" stroke-width="0.5" stroke-linecap="round" stroke-linejoin="round"/>
<path fill-rule="evenodd" clip-rule="evenodd" d="M14.9438 19.2799C13.9258 19.5115 12.8589 19.3837 11.9242 18.9184L3.24628 14.5974L3.33575 14.4064C3.64383 13.7476 4.42353 13.458 5.08691 13.7558L9.98542 15.9553" fill="white"/>
<path d="M14.9438 19.2799C13.9258 19.5115 12.8589 19.3837 11.9242 18.9184L3.24628 14.5974L3.33575 14.4064C3.64383 13.7476 4.42353 13.458 5.08691 13.7558L9.98542 15.9553" stroke="#202C60" stroke-width="0.5" stroke-linecap="round" stroke-linejoin="round"/>
<path fill-rule="evenodd" clip-rule="evenodd" d="M18.8011 19.0032L13.706 19.8756C12.6769 20.052 11.6185 19.8667 10.7104 19.3515L2.27893 14.5676L2.37849 14.3815C2.72181 13.7404 3.51588 13.4934 4.16232 13.8268L8.93476 16.288" fill="white"/>
<path d="M18.8011 19.0032L13.706 19.8756C12.6769 20.052 11.6185 19.8667 10.7104 19.3515L2.27893 14.5676L2.37849 14.3815C2.72181 13.7404 3.51588 13.4934 4.16232 13.8268L8.93476 16.288" stroke="#202C60" stroke-width="0.5" stroke-linecap="round" stroke-linejoin="round"/>
<path fill-rule="evenodd" clip-rule="evenodd" d="M21.1336 14.9905L18.1065 13.4435C17.1503 12.9547 16.0213 12.9373 15.0503 13.3962L8.93404 16.2875L9.18978 16.6503C9.53823 17.1447 10.1559 17.3724 10.742 17.2225L14.1081 16.3616" fill="white"/>
<path d="M21.1336 14.9905L18.1065 13.4435C17.1503 12.9547 16.0213 12.9373 15.0503 13.3962L8.93404 16.2875L9.18978 16.6503C9.53823 17.1447 10.1559 17.3724 10.742 17.2225L14.1081 16.3616" stroke="#202C60" stroke-width="0.5" stroke-linecap="round" stroke-linejoin="round"/>
<path fill-rule="evenodd" clip-rule="evenodd" d="M21.4663 20.1116L18.6615 19.7447L19.474 13.5319L22.2791 13.8988L21.4663 20.1116Z" fill="#6236FF"/>
<path fill-rule="evenodd" clip-rule="evenodd" d="M21.1826 15.0917C21.2722 15.3076 21.1699 15.5554 20.9539 15.6451C20.738 15.7347 20.4903 15.6322 20.4007 15.4164C20.311 15.2005 20.4133 14.9526 20.6292 14.863C20.8453 14.7733 21.093 14.8758 21.1826 15.0917Z" fill="white"/>
<path d="M10.4123 9.57757V6.72961H12.0583C12.2278 6.72961 12.3758 6.76287 12.5022 6.82937C12.6285 6.89587 12.725 7.00061 12.7915 7.14359C12.8613 7.28324 12.8962 7.46613 12.8962 7.69223V8.41544H12.3625V7.65732C12.3625 7.52764 12.3376 7.43121 12.2877 7.36803C12.2411 7.30153 12.1613 7.26828 12.0483 7.26828H11.1355V9.57757H10.4123ZM11.4747 9.57757V7.76206H12.0084V8.98404C12.3043 8.98404 12.5421 8.95079 12.7216 8.88428C12.9012 8.81778 13.0359 8.72302 13.1256 8.59999C13.2154 8.47363 13.2753 8.32567 13.3052 8.15608C13.3351 7.9865 13.3501 7.8003 13.3501 7.59747L13.3401 6.72961H14.0633L14.0683 7.59747C14.0716 8.08626 13.9868 8.47862 13.8139 8.77455C13.641 9.06716 13.3634 9.27831 12.981 9.40799C12.6019 9.53434 12.0998 9.59087 11.4747 9.57757Z" fill="white"/>
<path d="M10.4123 9.57757V6.72961H12.0583C12.2278 6.72961 12.3758 6.76287 12.5022 6.82937C12.6285 6.89587 12.725 7.00061 12.7915 7.14359C12.8613 7.28324 12.8962 7.46613 12.8962 7.69223V8.41544H12.3625V7.65732C12.3625 7.52764 12.3376 7.43121 12.2877 7.36803C12.2411 7.30153 12.1613 7.26828 12.0483 7.26828H11.1355V9.57757H10.4123ZM11.4747 9.57757V7.76206H12.0084V8.98404C12.3043 8.98404 12.5421 8.95079 12.7216 8.88428C12.9012 8.81778 13.0359 8.72302 13.1256 8.59999C13.2154 8.47363 13.2753 8.32567 13.3052 8.15608C13.3351 7.9865 13.3501 7.8003 13.3501 7.59747L13.3401 6.72961H14.0633L14.0683 7.59747C14.0716 8.08626 13.9868 8.47862 13.8139 8.77455C13.641 9.06716 13.3634 9.27831 12.981 9.40799C12.6019 9.53434 12.0998 9.59087 11.4747 9.57757Z" fill="#202C60"/>
<path fill-rule="evenodd" clip-rule="evenodd" d="M16.5062 8.15382C16.5062 10.5095 14.5965 12.4192 12.2408 12.4192C9.8851 12.4192 7.97537 10.5095 7.97537 8.15382C7.97537 5.79815 9.8851 3.88843 12.2408 3.88843C14.5965 3.88843 16.5062 5.79815 16.5062 8.15382Z" stroke="#202C60" stroke-width="0.5" stroke-linecap="round" stroke-linejoin="round"/>
</g>
<defs>
<clipPath id="clip0_81_636">
<rect width="24" height="24" fill="white" transform="translate(0.279053)"/>
</clipPath>
</defs>
</svg>
