<svg width="60" height="60" viewBox="0 0 60 60" fill="none" xmlns="http://www.w3.org/2000/svg">
<g clip-path="url(#clip0_1_342)">
<ellipse cx="14.7743" cy="43.0915" rx="14.2742" ry="14.2742" fill="#E9F4FF"/>
<ellipse cx="45.2259" cy="43.0915" rx="14.2742" ry="14.2742" fill="#E9F4FF"/>
<ellipse cx="29.9998" cy="16.9083" rx="14.2742" ry="14.2742" fill="#E9F4FF"/>
<path d="M32.0046 5.31514C32.1134 5.20608 32.2815 5.19223 32.405 5.27412L32.4548 5.31514L35.6423 8.51436C35.7514 8.62371 35.7654 8.79336 35.6833 8.91768L35.6423 8.96748L34.5661 10.0485L34.3962 10.2185H35.5427C35.6057 10.2185 35.6667 10.2377 35.7185 10.2722L35.7673 10.3122L39.5564 14.1091C39.6141 14.1672 39.6491 14.2473 39.6491 14.3356V18.5886C39.6491 18.7656 39.5063 18.9089 39.3308 18.9089C39.1554 18.9087 39.0124 18.7655 39.0124 18.5886V14.656H20.737V25.8815H39.0124V21.9489C39.0124 21.772 39.1554 21.6288 39.3308 21.6286C39.5063 21.6286 39.6491 21.7719 39.6491 21.9489V26.2019C39.649 26.3788 39.5063 26.5212 39.3308 26.5212H20.4177C20.2424 26.5209 20.0994 26.3787 20.0993 26.2019V14.3356C20.0994 14.2473 20.1354 14.167 20.1931 14.1091L20.2224 14.0808V14.0788L23.9743 10.3122C24.0339 10.2524 24.1147 10.2186 24.1989 10.2185H27.0154C27.0286 10.2185 27.0425 10.2202 27.0583 10.2224L27.1081 10.2292L27.1433 10.194L30.6804 6.64424L32.0046 5.31514ZM24.3015 10.8884L21.3571 13.8454L21.1872 14.0163H38.5612L38.3904 13.8454L35.4402 10.8884L35.4109 10.8591H33.7585L33.7292 10.8884L32.6736 11.947L32.5036 12.1169H34.1364C34.3117 12.1172 34.4548 12.2605 34.4548 12.4372C34.4548 12.6141 34.3118 12.7573 34.1364 12.7575H25.613C25.4375 12.7574 25.2946 12.6142 25.2946 12.4372C25.2947 12.2604 25.4376 12.117 25.613 12.1169H27.1736L27.0036 11.947L26.4255 11.3669C26.3274 11.2684 26.3066 11.1212 26.364 11.0017L26.4323 10.8591H24.3308L24.3015 10.8884ZM32.1589 6.06514L31.1306 7.09639L27.1716 11.07L27.1013 11.1403L27.1716 11.2116L28.0446 12.0876L28.0739 12.1169H31.6032L31.6325 12.0876L34.8972 8.81123L34.9675 8.74092L34.8972 8.67061L32.3005 6.06514L32.2292 5.99385L32.1589 6.06514Z" fill="#202C60" stroke="white" stroke-width="0.2"/>
<path d="M32.3547 12.3569H27.3645L26.1507 11.0382L32.4896 4.83411L36.1311 8.47563L32.3547 12.3569Z" fill="#0580FC"/>
<path d="M39.2497 19.6212C39.0522 19.6212 38.8589 19.7015 38.7194 19.8412C38.58 19.9807 38.4997 20.174 38.4997 20.3712C38.4997 20.5692 38.58 20.762 38.7194 20.9023C38.8589 21.0418 39.0522 21.1212 39.2497 21.1212C39.4469 21.1212 39.6402 21.0418 39.78 20.9023C39.9194 20.762 39.9997 20.5687 39.9997 20.3712C39.9997 20.174 39.9194 19.9813 39.78 19.8412C39.6402 19.7015 39.4469 19.6212 39.2497 19.6212Z" fill="#6236FF"/>
<path d="M39.2497 19.6212C39.0522 19.6212 38.8589 19.7015 38.7194 19.8412C38.58 19.9807 38.4997 20.174 38.4997 20.3712C38.4997 20.5692 38.58 20.762 38.7194 20.9023C38.8589 21.0418 39.0522 21.1212 39.2497 21.1212C39.4469 21.1212 39.6402 21.0418 39.78 20.9023C39.9194 20.762 39.9997 20.5687 39.9997 20.3712C39.9997 20.174 39.9194 19.9813 39.78 19.8412C39.6402 19.7015 39.4469 19.6212 39.2497 19.6212Z" fill="#6236FF"/>
<path d="M32.2698 12.3439H27.3985L26.2136 11.0794L27.0242 10.2722L34.3384 10.2722L32.2698 12.3439Z" fill="#6236FF"/>
<rect x="20.5614" y="26.0172" width="11.5216" height="9.32495" transform="rotate(-90 20.5614 26.0172)" fill="#32C4FF"/>
<path fill-rule="evenodd" clip-rule="evenodd" d="M31.2605 16.5659C31.1587 16.4243 30.9473 16.3508 30.7886 16.4018L30.2123 16.587C30.0534 16.6381 29.796 16.6381 29.6371 16.587L29.0608 16.4018C28.9021 16.3508 28.6908 16.4243 28.5889 16.5659L28.2344 17.0587C28.1325 17.2003 27.9225 17.3606 27.7653 17.4168L27.1951 17.6205C27.0377 17.6767 26.9081 17.8677 26.9054 18.0473L26.8963 18.6545C26.8937 18.834 26.8123 19.097 26.7147 19.242L26.3754 19.7456C26.2778 19.8905 26.2778 20.1256 26.3754 20.2706L26.7147 20.7743C26.8123 20.9193 26.8937 21.1823 26.8963 21.3618L26.9054 21.969C26.9081 22.1486 27.0377 22.3396 27.1951 22.3958L27.7653 22.5994C27.9225 22.6556 28.1325 22.816 28.2344 22.9576L28.5889 23.4504C28.6908 23.592 28.9021 23.6654 29.0608 23.6144L29.6371 23.4293C29.796 23.3783 30.0534 23.3783 30.2123 23.4293L30.7886 23.6144C30.9473 23.6654 31.1587 23.592 31.2605 23.4504L31.615 22.9576C31.7169 22.816 31.9269 22.6556 32.0843 22.5994L32.6543 22.3958C32.8117 22.3396 32.9414 22.1486 32.944 21.969L32.9531 21.3618C32.9558 21.1823 33.0371 20.9193 33.1347 20.7743L33.474 20.2706C33.5716 20.1256 33.5716 19.8905 33.474 19.7456L33.1347 19.242C33.0371 19.097 32.9558 18.834 32.9531 18.6545L32.944 18.0473C32.9414 17.8677 32.8117 17.6767 32.6543 17.6205L32.0843 17.4168C31.9269 17.3606 31.7169 17.2003 31.615 17.0587L31.2605 16.5659Z" fill="#232D3D"/>
<path fill-rule="evenodd" clip-rule="evenodd" d="M32.6112 20.0323C32.6112 21.5035 31.4185 22.6962 29.9473 22.6962C28.4761 22.6962 27.2834 21.5035 27.2834 20.0323C27.2834 18.5611 28.4761 17.3685 29.9473 17.3685C31.4185 17.3685 32.6112 18.5611 32.6112 20.0323Z" fill="white" stroke="#1F2835" stroke-width="0.325323" stroke-linecap="round" stroke-linejoin="round"/>
<path d="M30.8813 11.6684L29.0728 9.85765L30.1193 8.81244C30.2271 8.70475 30.3423 8.63193 30.4649 8.59398C30.5875 8.55602 30.7153 8.56138 30.8484 8.61006C30.9814 8.65451 31.1198 8.74862 31.2634 8.89238L31.7226 9.3522L31.3833 9.69111L30.9019 9.20908C30.8195 9.12663 30.7424 9.08116 30.6706 9.07266C30.5988 9.05994 30.5269 9.08948 30.455 9.16127L29.8747 9.74088L31.3412 11.2092L30.8813 11.6684ZM31.5568 10.9938L30.4039 9.83946L30.7432 9.50056L31.5192 10.2775C31.7074 10.0896 31.8374 9.91746 31.9094 9.76115C31.9813 9.60485 32.0067 9.45908 31.9857 9.32384C31.9625 9.18649 31.9066 9.05441 31.818 8.92758C31.7293 8.80076 31.6206 8.67287 31.4918 8.5439L30.9343 7.99845L31.3941 7.53919L31.9484 8.08781C32.2609 8.39648 32.4562 8.69979 32.5342 8.99775C32.61 9.29359 32.5676 9.60415 32.4068 9.92943C32.246 10.2505 31.9627 10.6053 31.5568 10.9938Z" fill="white"/>
<path d="M52.4181 51.0703C52.4223 52.3377 51.3983 53.3685 50.1309 53.3726C50.1268 53.3726 50.1227 53.3727 50.1186 53.3726L41.051 53.3539C39.7855 53.3512 38.761 52.3246 38.761 51.0591V35.0472C38.761 34.7598 38.8808 34.5272 39.0286 34.5272H50.6227C50.7704 34.5272 50.8902 34.7598 50.8902 35.0472L50.9065 49.0176" stroke="#202C60" stroke-width="0.5" stroke-linecap="round"/>
<path d="M41.8096 51.4566H41.2863C40.5742 51.4566 39.9918 50.8892 39.9733 50.1773L39.963 49.7814C39.9496 49.2631 40.3645 48.8349 40.8829 48.832L41.2409 48.83C42.5106 48.8229 43.5434 49.8509 43.5421 51.1207V51.1207C43.5407 52.3836 42.5166 53.4067 41.2537 53.4067H40.4302" stroke="#202C60" stroke-width="0.5" stroke-linecap="round"/>
<path d="M46.1779 41.559L40.4078 41.5499" stroke="#202C60" stroke-width="0.325323" stroke-linecap="round" stroke-linejoin="round"/>
<path d="M43.7193 43.6901L40.4078 43.685" stroke="#202C60" stroke-width="0.325323" stroke-linecap="round" stroke-linejoin="round"/>
<path d="M49.7073 45.8214L43.9372 45.8123" stroke="#202C60" stroke-width="0.5" stroke-linecap="square" stroke-linejoin="round"/>
<path d="M52.3823 51.3126V51.3126C52.3823 49.9091 51.2452 48.771 49.8416 48.7698L41.7204 48.7629" stroke="#202C60" stroke-width="0.5" stroke-linecap="round" stroke-linejoin="round"/>
<path fill-rule="evenodd" clip-rule="evenodd" d="M52.3823 51.3126C52.3823 49.9091 51.2452 48.771 49.8416 48.7698L41.7204 48.7629" fill="#32C4FF"/>
<path d="M52.3823 51.3126V51.3126C52.3823 49.9091 51.2452 48.771 49.8416 48.7698L41.7204 48.7629" stroke="#202C60" stroke-width="0.5" stroke-linecap="round" stroke-linejoin="round"/>
<rect x="40.3338" y="40.0021" width="3.93397" height="9.01492" rx="0.650647" transform="rotate(-90 40.3338 40.0021)" fill="#202C60"/>
<path d="M54.718 41.2338L52.5576 39.3904C51.1173 41.2668 49.3524 43.9961 50.1196 44.643C50.8867 45.2898 53.7468 42.4428 54.718 41.2338Z" fill="#0580FC"/>
<path d="M55.3124 40.6193L53.0331 38.7165C53.9051 37.5008 55.7269 35.0785 55.9862 34.9703C57.0367 34.5323 58.5126 35.8492 58.2854 36.8731C58.2543 37.0133 56.2968 39.4301 55.3124 40.6193Z" fill="#0580FC"/>
<path d="M50.1196 44.6429L49.624 45.2752M58.4538 37.9117L56.4917 40.312" stroke="#202C60"/>
<path d="M53.112 38.7151L55.3318 40.5782" stroke="#202C60"/>
<path fill-rule="evenodd" clip-rule="evenodd" d="M50.9327 41.7362C50.142 43.0393 49.6437 44.2417 50.1195 44.6429C50.296 44.7916 50.5832 44.7556 50.9327 44.5971V41.7362Z" fill="#6236FF"/>
<path fill-rule="evenodd" clip-rule="evenodd" d="M11.345 50.819L6.19727 45.024L6.36979 44.8535C6.96447 44.2653 7.92092 44.2633 8.51797 44.8488L12.9274 49.172" fill="white"/>
<path d="M11.345 50.819L6.19727 45.024L6.36979 44.8535C6.96447 44.2653 7.92092 44.2633 8.51797 44.8488L12.9274 49.172" stroke="#202C60" stroke-width="0.5"/>
<path d="M11.345 50.819L6.19727 45.024L6.36979 44.8535C6.96447 44.2653 7.92092 44.2633 8.51797 44.8488L12.9274 49.172" stroke="#202C60" stroke-width="0.5" stroke-linecap="round" stroke-linejoin="round"/>
<path fill-rule="evenodd" clip-rule="evenodd" d="M17.2462 52.2999C16.0755 52.5662 14.8486 52.4193 13.7737 51.8842L3.7941 46.9152L3.89698 46.6955C4.25127 45.9379 5.14792 45.6049 5.9108 45.9474L11.5441 48.4767" fill="white"/>
<path d="M17.2462 52.2999C16.0755 52.5662 14.8486 52.4193 13.7737 51.8842L3.7941 46.9152L3.89698 46.6955C4.25127 45.9379 5.14792 45.6049 5.9108 45.9474L11.5441 48.4767" stroke="#202C60" stroke-width="0.5" stroke-linecap="round" stroke-linejoin="round"/>
<path fill-rule="evenodd" clip-rule="evenodd" d="M21.6819 51.9821L15.8226 52.9854C14.6392 53.1882 13.4221 52.9751 12.3777 52.3826L2.68158 46.8813L2.79607 46.6673C3.19089 45.93 4.10406 45.6459 4.84746 46.0293L10.3357 48.8597" fill="white"/>
<path d="M21.6819 51.9821L15.8226 52.9854C14.6392 53.1882 13.4221 52.9751 12.3777 52.3826L2.68158 46.8813L2.79607 46.6673C3.19089 45.93 4.10406 45.6459 4.84746 46.0293L10.3357 48.8597" stroke="#202C60" stroke-width="0.5" stroke-linecap="round" stroke-linejoin="round"/>
<path fill-rule="evenodd" clip-rule="evenodd" d="M24.3643 47.3676L20.8831 45.5885C19.7835 45.0265 18.4851 45.0064 17.3685 45.5342L10.3348 48.8591L10.6289 49.2763C11.0297 49.8448 11.74 50.1067 12.414 49.9343L16.285 48.9443" fill="white"/>
<path d="M24.3643 47.3676L20.8831 45.5885C19.7835 45.0265 18.4851 45.0064 17.3685 45.5342L10.3348 48.8591L10.6289 49.2763C11.0297 49.8448 11.74 50.1067 12.414 49.9343L16.285 48.9443" stroke="#202C60" stroke-width="0.5" stroke-linecap="round" stroke-linejoin="round"/>
<path fill-rule="evenodd" clip-rule="evenodd" d="M24.7469 53.2567L21.5213 52.8347L22.4557 45.6902L25.6816 46.1122L24.7469 53.2567Z" fill="#6236FF"/>
<path fill-rule="evenodd" clip-rule="evenodd" d="M24.4207 47.4837C24.5238 47.7319 24.4062 48.017 24.1577 48.12C23.9094 48.2231 23.6246 48.1053 23.5215 47.857C23.4184 47.6088 23.5361 47.3237 23.7843 47.2207C24.0328 47.1176 24.3176 47.2354 24.4207 47.4837Z" fill="white"/>
<path fill-rule="evenodd" clip-rule="evenodd" d="M18.4431 39.618C18.4431 42.0596 16.3812 44.0389 13.8377 44.0389C11.2943 44.0389 9.23233 42.0596 9.23233 39.618C9.23233 37.1765 11.2943 35.1971 13.8377 35.1971C16.3812 35.1971 18.4431 37.1765 18.4431 39.618Z" fill="#46C4FD"/>
<path d="M17.4322 42.4025C18.9619 40.4938 18.6688 37.7421 16.7777 36.2565L11.2383 43.1686C13.1295 44.6542 15.9026 44.3112 17.4322 42.4025Z" fill="#0580FC"/>
<path d="M12.035 41.143V37.8679H13.9278C14.1228 37.8679 14.293 37.9061 14.4383 37.9826C14.5836 38.0591 14.6945 38.1795 14.771 38.344C14.8513 38.5045 14.8914 38.7149 14.8914 38.9749V39.8065H14.2777V38.9347C14.2777 38.7856 14.249 38.6747 14.1916 38.6021C14.1381 38.5256 14.0463 38.4873 13.9163 38.4873H12.8667V41.143H12.035ZM13.2567 41.143V39.0552H13.8704V40.4604C14.2108 40.4604 14.4842 40.4222 14.6907 40.3457C14.8971 40.2692 15.052 40.1602 15.1553 40.0188C15.2585 39.8735 15.3273 39.7033 15.3617 39.5083C15.3962 39.3133 15.4134 39.0991 15.4134 38.8659L15.4019 37.8679H16.2336L16.2393 38.8659C16.2432 39.428 16.1456 39.8792 15.9468 40.2195C15.748 40.556 15.4287 40.7988 14.9889 40.9479C14.553 41.0933 13.9756 41.1583 13.2567 41.143Z" fill="white"/>
<path d="M12.035 41.143V37.8679H13.9278C14.1228 37.8679 14.293 37.9061 14.4383 37.9826C14.5836 38.0591 14.6945 38.1795 14.771 38.344C14.8513 38.5045 14.8914 38.7149 14.8914 38.9749V39.8065H14.2777V38.9347C14.2777 38.7856 14.249 38.6747 14.1916 38.6021C14.1381 38.5256 14.0463 38.4873 13.9163 38.4873H12.8667V41.143H12.035ZM13.2567 41.143V39.0552H13.8704V40.4604C14.2108 40.4604 14.4842 40.4222 14.6907 40.3457C14.8971 40.2692 15.052 40.1602 15.1553 40.0188C15.2585 39.8735 15.3273 39.7033 15.3617 39.5083C15.3962 39.3133 15.4134 39.0991 15.4134 38.8659L15.4019 37.8679H16.2336L16.2393 38.8659C16.2432 39.428 16.1456 39.8792 15.9468 40.2195C15.748 40.556 15.4287 40.7988 14.9889 40.9479C14.553 41.0933 13.9756 41.1583 13.2567 41.143Z" fill="white"/>
<path fill-rule="evenodd" clip-rule="evenodd" d="M19.0429 39.5055C19.0429 42.2145 16.8467 44.4106 14.1377 44.4106C11.4287 44.4106 9.23248 42.2145 9.23248 39.5055C9.23248 36.7965 11.4287 34.6004 14.1377 34.6004C16.8467 34.6004 19.0429 36.7965 19.0429 39.5055Z" stroke="#202C60" stroke-width="0.5" stroke-linecap="round" stroke-linejoin="round"/>
</g>
<defs>
<clipPath id="clip0_1_342">
<rect width="60" height="60" fill="white"/>
</clipPath>
</defs>
</svg>
